<svg xmlns="http://www.w3.org/2000/svg" width="1280" height="780" viewBox="0 0 1280 780" role="img" aria-labelledby="title desc">
  <title id="title">Codex Token Usage Dashboard panel preview</title>
  <desc id="desc">A dashboard style preview showing token metrics, trend charts, token mix and detailed rows.</desc>
  <rect width="1280" height="780" rx="26" fill="#f6f9fc"/>
  <rect x="34" y="34" width="1212" height="712" rx="18" fill="#ffffff" stroke="#d9e3f0"/>
  <text x="72" y="96" fill="#0a2540" font-family="Segoe UI, Arial, sans-serif" font-size="38" font-weight="800">Codex Token Usage</text>
  <text x="74" y="132" fill="#66788a" font-family="Segoe UI, Arial, sans-serif" font-size="18">Sample data · Preview dashboard for presentation</text>
  <g font-family="Segoe UI, Arial, sans-serif" font-size="18" font-weight="700">
    <rect x="856" y="70" width="86" height="44" rx="7" fill="#eef4ff" stroke="#d9e3f0"/>
    <text x="875" y="99" fill="#0a2540">Day</text>
    <rect x="956" y="70" width="86" height="44" rx="7" fill="#ffffff" stroke="#d9e3f0"/>
    <text x="976" y="99" fill="#0a2540">Week</text>
    <rect x="1056" y="70" width="86" height="44" rx="7" fill="#ffffff" stroke="#d9e3f0"/>
    <text x="1078" y="99" fill="#0a2540">Month</text>
    <rect x="1156" y="70" width="62" height="44" rx="7" fill="#0a2540"/>
    <text x="1168" y="99" fill="#80e9ff">Sync</text>
  </g>
  <g font-family="Segoe UI, Arial, sans-serif">
    <g>
      <rect x="72" y="172" width="210" height="96" rx="8" fill="#f6f9fc" stroke="#d9e3f0"/>
      <text x="92" y="206" fill="#66788a" font-size="16">Total tokens</text>
      <text x="92" y="246" fill="#0a2540" font-size="30" font-weight="800">3,842,190</text>
      <rect x="224" y="188" width="70" height="16" transform="rotate(-20 224 188)" fill="#80e9ff"/>
    </g>
    <g>
      <rect x="304" y="172" width="210" height="96" rx="8" fill="#f6f9fc" stroke="#d9e3f0"/>
      <text x="324" y="206" fill="#66788a" font-size="16">Est. cost</text>
      <text x="324" y="246" fill="#0a2540" font-size="30" font-weight="800">$27.86</text>
      <rect x="456" y="188" width="70" height="16" transform="rotate(-20 456 188)" fill="#635bff"/>
    </g>
    <g>
      <rect x="536" y="172" width="210" height="96" rx="8" fill="#f6f9fc" stroke="#d9e3f0"/>
      <text x="556" y="206" fill="#66788a" font-size="16">Input</text>
      <text x="556" y="246" fill="#0a2540" font-size="30" font-weight="800">1,126,430</text>
      <rect x="688" y="188" width="70" height="16" transform="rotate(-20 688 188)" fill="#ffb89c"/>
    </g>
    <g>
      <rect x="768" y="172" width="210" height="96" rx="8" fill="#f6f9fc" stroke="#d9e3f0"/>
      <text x="788" y="206" fill="#66788a" font-size="16">Output</text>
      <text x="788" y="246" fill="#0a2540" font-size="30" font-weight="800">318,744</text>
      <rect x="920" y="188" width="70" height="16" transform="rotate(-20 920 188)" fill="#00d4a1"/>
    </g>
    <g>
      <rect x="1000" y="172" width="210" height="96" rx="8" fill="#f6f9fc" stroke="#d9e3f0"/>
      <text x="1020" y="206" fill="#66788a" font-size="16">Cache read</text>
      <text x="1020" y="246" fill="#0a2540" font-size="30" font-weight="800">2,397,016</text>
      <rect x="1152" y="188" width="70" height="16" transform="rotate(-20 1152 188)" fill="#80e9ff"/>
    </g>
  </g>
  <g>
    <rect x="72" y="300" width="740" height="244" rx="8" fill="#ffffff" stroke="#d9e3f0"/>
    <text x="96" y="338" fill="#0a2540" font-family="Segoe UI, Arial, sans-serif" font-size="20" font-weight="800">Trend</text>
    <path d="M110 492 H770" stroke="#d9e3f0"/>
    <path d="M110 468 C150 454 170 424 214 432 C260 440 274 372 326 382 C374 392 394 326 448 338 C500 350 524 292 582 314 C640 336 654 270 710 286 C742 296 754 284 770 268" fill="none" stroke="#635bff" stroke-width="7" stroke-linecap="round"/>
    <path d="M110 506 C158 492 196 500 238 474 C284 446 316 462 362 430 C412 396 446 412 498 384 C550 356 590 384 638 350 C690 314 732 336 770 316" fill="none" stroke="#00d4a1" stroke-width="7" stroke-linecap="round"/>
    <path d="M110 520 C160 516 206 508 252 492 C310 472 344 484 392 456 C450 422 500 442 548 416 C610 382 662 398 716 364 C740 348 756 350 770 340" fill="none" stroke="#ffb89c" stroke-width="5" stroke-linecap="round"/>
    <g fill="#66788a" font-family="Segoe UI, Arial, sans-serif" font-size="13">
      <text x="110" y="522">09:00</text>
      <text x="264" y="522">12:00</text>
      <text x="418" y="522">15:00</text>
      <text x="572" y="522">18:00</text>
      <text x="722" y="522">21:00</text>
    </g>
  </g>
  <g>
    <rect x="842" y="300" width="368" height="244" rx="8" fill="#ffffff" stroke="#d9e3f0"/>
    <text x="866" y="338" fill="#0a2540" font-family="Segoe UI, Arial, sans-serif" font-size="20" font-weight="800">Token mix</text>
    <circle cx="1026" cy="420" r="74" fill="#635bff"/>
    <path d="M1026 420 L1026 346 A74 74 0 0 1 1098 436 Z" fill="#80e9ff"/>
    <path d="M1026 420 L1098 436 A74 74 0 0 1 982 480 Z" fill="#ffb89c"/>
    <circle cx="1026" cy="420" r="34" fill="#ffffff"/>
    <g font-family="Segoe UI, Arial, sans-serif" font-size="14" fill="#66788a">
      <rect x="882" y="506" width="12" height="12" fill="#635bff"/><text x="902" y="517">Input 29%</text>
      <rect x="986" y="506" width="12" height="12" fill="#80e9ff"/><text x="1006" y="517">Cache 62%</text>
      <rect x="1102" y="506" width="12" height="12" fill="#ffb89c"/><text x="1122" y="517">Output 9%</text>
    </g>
  </g>
  <g font-family="Segoe UI, Arial, sans-serif">
    <rect x="72" y="574" width="1138" height="124" rx="8" fill="#ffffff" stroke="#d9e3f0"/>
    <text x="96" y="612" fill="#0a2540" font-size="20" font-weight="800">Details</text>
    <g fill="#66788a" font-size="14" font-weight="700">
      <text x="96" y="648">Time</text><text x="256" y="648">Model</text><text x="550" y="648">Input</text><text x="700" y="648">Output</text><text x="850" y="648">Cache read</text><text x="1058" y="648">Cost</text>
    </g>
    <path d="M96 662 H1186" stroke="#edf2f7"/>
    <g fill="#0a2540" font-size="14">
      <text x="96" y="688">Jul 13 Monday</text><text x="256" y="688">gpt-5-codex</text><text x="550" y="688">426,880</text><text x="700" y="688">74,112</text><text x="850" y="688">812,440</text><text x="1058" y="688">$6.94</text>
      <text x="96" y="716">Jul 12 Sunday</text><text x="256" y="716">gpt-5-codex, o3</text><text x="550" y="716">318,240</text><text x="700" y="716">52,706</text><text x="850" y="716">690,118</text><text x="1058" y="716">$5.21</text>
    </g>
  </g>
</svg>
